<svg xmlns="http://www.w3.org/2000/svg" viewBox="0 0 64 64">
  <defs>
    <linearGradient id="g" x1="0" y1="0" x2="1" y2="1">
      <stop offset="0%" stop-color="#7c3aed"/>
      <stop offset="100%" stop-color="#a855f7"/>
    </linearGradient>
  </defs>
  <circle cx="32" cy="32" r="30" fill="url(#g)" opacity="0.9"/>
  <path d="M20 36c0-6.627 5.373-12 12-12s12 5.373 12 12-5.373 12-12 12-12-5.373-12-12zm12-18c9.941 0 18 8.059 18 18 0 3.712-1.131 7.156-3.067 9.997l3.734 3.734-2.828 2.828-3.905-3.905A17.93 17.93 0 0132 54c-9.941 0-18-8.059-18-18s8.059-18 18-18z" fill="#fff"/>
</svg>